<mxfile host="app.diagrams.net" agent="Mozilla/5.0 (Windows NT 10.0; Win64; x64; rv:137.0) Gecko/20100101 Firefox/137.0" version="26.2.9">
  <diagram name="Page-1" id="mnhfKJHkXYlfaxxIdJFy">
    <mxGraphModel dx="1212" dy="842" grid="1" gridSize="10" guides="1" tooltips="1" connect="1" arrows="1" fold="1" page="1" pageScale="1" pageWidth="850" pageHeight="1100" math="0" shadow="0">
      <root>
        <mxCell id="0" />
        <mxCell id="1" parent="0" />
        <mxCell id="cxBclDdadFvKwpa0EuoE-1" value="&lt;div&gt;Uporabnik&lt;/div&gt;" style="rounded=0;whiteSpace=wrap;html=1;" vertex="1" parent="1">
          <mxGeometry x="220" y="160" width="120" height="60" as="geometry" />
        </mxCell>
        <mxCell id="cxBclDdadFvKwpa0EuoE-2" value="" style="endArrow=none;html=1;rounded=0;exitX=0.444;exitY=0.5;exitDx=0;exitDy=0;exitPerimeter=0;" edge="1" parent="1" source="cxBclDdadFvKwpa0EuoE-3" target="cxBclDdadFvKwpa0EuoE-1">
          <mxGeometry width="50" height="50" relative="1" as="geometry">
            <mxPoint x="140" y="330" as="sourcePoint" />
            <mxPoint x="430" y="260" as="targetPoint" />
          </mxGeometry>
        </mxCell>
        <mxCell id="cxBclDdadFvKwpa0EuoE-3" value="&lt;div&gt;uporabniško&amp;nbsp;&lt;/div&gt;&lt;div&gt;ime&lt;/div&gt;" style="ellipse;whiteSpace=wrap;html=1;" vertex="1" parent="1">
          <mxGeometry x="30" y="120" width="90" height="60" as="geometry" />
        </mxCell>
        <mxCell id="cxBclDdadFvKwpa0EuoE-4" value="email" style="ellipse;whiteSpace=wrap;html=1;" vertex="1" parent="1">
          <mxGeometry x="40" y="210" width="90" height="60" as="geometry" />
        </mxCell>
        <mxCell id="cxBclDdadFvKwpa0EuoE-5" value="" style="endArrow=none;html=1;rounded=0;" edge="1" parent="1" source="cxBclDdadFvKwpa0EuoE-4" target="cxBclDdadFvKwpa0EuoE-1">
          <mxGeometry width="50" height="50" relative="1" as="geometry">
            <mxPoint x="380" y="310" as="sourcePoint" />
            <mxPoint x="430" y="260" as="targetPoint" />
          </mxGeometry>
        </mxCell>
        <mxCell id="cxBclDdadFvKwpa0EuoE-6" value="geslo" style="ellipse;whiteSpace=wrap;html=1;" vertex="1" parent="1">
          <mxGeometry x="110" y="40" width="90" height="60" as="geometry" />
        </mxCell>
        <mxCell id="cxBclDdadFvKwpa0EuoE-7" value="" style="endArrow=none;html=1;rounded=0;" edge="1" parent="1" source="cxBclDdadFvKwpa0EuoE-6" target="cxBclDdadFvKwpa0EuoE-1">
          <mxGeometry width="50" height="50" relative="1" as="geometry">
            <mxPoint x="380" y="320" as="sourcePoint" />
            <mxPoint x="430" y="270" as="targetPoint" />
          </mxGeometry>
        </mxCell>
        <mxCell id="cxBclDdadFvKwpa0EuoE-8" value="doživi" style="rhombus;whiteSpace=wrap;html=1;" vertex="1" parent="1">
          <mxGeometry x="390" y="150" width="110" height="80" as="geometry" />
        </mxCell>
        <mxCell id="cxBclDdadFvKwpa0EuoE-9" value="" style="endArrow=none;dashed=1;html=1;rounded=0;" edge="1" parent="1" source="cxBclDdadFvKwpa0EuoE-1" target="cxBclDdadFvKwpa0EuoE-8">
          <mxGeometry width="50" height="50" relative="1" as="geometry">
            <mxPoint x="380" y="330" as="sourcePoint" />
            <mxPoint x="430" y="280" as="targetPoint" />
          </mxGeometry>
        </mxCell>
        <mxCell id="cxBclDdadFvKwpa0EuoE-11" value="Opažanje" style="rounded=0;whiteSpace=wrap;html=1;" vertex="1" parent="1">
          <mxGeometry x="545" y="330" width="120" height="60" as="geometry" />
        </mxCell>
        <mxCell id="cxBclDdadFvKwpa0EuoE-13" value="&lt;div&gt;1&lt;/div&gt;" style="text;html=1;align=center;verticalAlign=middle;whiteSpace=wrap;rounded=0;" vertex="1" parent="1">
          <mxGeometry x="460" y="200" width="60" height="30" as="geometry" />
        </mxCell>
        <mxCell id="cxBclDdadFvKwpa0EuoE-14" value="datum" style="ellipse;whiteSpace=wrap;html=1;" vertex="1" parent="1">
          <mxGeometry x="540" y="185" width="90" height="60" as="geometry" />
        </mxCell>
        <mxCell id="cxBclDdadFvKwpa0EuoE-15" value="mesto" style="ellipse;whiteSpace=wrap;html=1;" vertex="1" parent="1">
          <mxGeometry x="260" y="680" width="90" height="60" as="geometry" />
        </mxCell>
        <mxCell id="cxBclDdadFvKwpa0EuoE-17" value="država" style="ellipse;whiteSpace=wrap;html=1;" vertex="1" parent="1">
          <mxGeometry x="380" y="700" width="90" height="60" as="geometry" />
        </mxCell>
        <mxCell id="cxBclDdadFvKwpa0EuoE-18" value="" style="endArrow=none;dashed=1;html=1;rounded=0;" edge="1" parent="1" source="cxBclDdadFvKwpa0EuoE-1" target="cxBclDdadFvKwpa0EuoE-8">
          <mxGeometry width="50" height="50" relative="1" as="geometry">
            <mxPoint x="340" y="190" as="sourcePoint" />
            <mxPoint x="390" y="190" as="targetPoint" />
          </mxGeometry>
        </mxCell>
        <mxCell id="cxBclDdadFvKwpa0EuoE-10" value="&lt;div&gt;N&lt;/div&gt;" style="text;html=1;align=center;verticalAlign=middle;whiteSpace=wrap;rounded=0;" vertex="1" parent="1">
          <mxGeometry x="350" y="160" width="60" height="30" as="geometry" />
        </mxCell>
        <mxCell id="cxBclDdadFvKwpa0EuoE-19" value="" style="endArrow=none;html=1;rounded=0;exitX=0.5;exitY=0;exitDx=0;exitDy=0;" edge="1" parent="1" source="cxBclDdadFvKwpa0EuoE-11" target="cxBclDdadFvKwpa0EuoE-14">
          <mxGeometry width="50" height="50" relative="1" as="geometry">
            <mxPoint x="410" y="340" as="sourcePoint" />
            <mxPoint x="460" y="290" as="targetPoint" />
          </mxGeometry>
        </mxCell>
        <mxCell id="cxBclDdadFvKwpa0EuoE-24" value="" style="endArrow=none;html=1;rounded=0;" edge="1" parent="1" source="cxBclDdadFvKwpa0EuoE-58" target="cxBclDdadFvKwpa0EuoE-11">
          <mxGeometry width="50" height="50" relative="1" as="geometry">
            <mxPoint x="694.9881570056284" y="620.7519193422859" as="sourcePoint" />
            <mxPoint x="600" y="370" as="targetPoint" />
          </mxGeometry>
        </mxCell>
        <mxCell id="cxBclDdadFvKwpa0EuoE-25" value="trajanje" style="ellipse;whiteSpace=wrap;html=1;" vertex="1" parent="1">
          <mxGeometry x="745" y="310" width="90" height="60" as="geometry" />
        </mxCell>
        <mxCell id="cxBclDdadFvKwpa0EuoE-26" value="" style="endArrow=none;html=1;rounded=0;" edge="1" parent="1" source="cxBclDdadFvKwpa0EuoE-25" target="cxBclDdadFvKwpa0EuoE-11">
          <mxGeometry width="50" height="50" relative="1" as="geometry">
            <mxPoint x="550" y="440" as="sourcePoint" />
            <mxPoint x="600" y="390" as="targetPoint" />
          </mxGeometry>
        </mxCell>
        <mxCell id="cxBclDdadFvKwpa0EuoE-27" value="opis" style="ellipse;whiteSpace=wrap;html=1;" vertex="1" parent="1">
          <mxGeometry x="740" y="230" width="90" height="60" as="geometry" />
        </mxCell>
        <mxCell id="cxBclDdadFvKwpa0EuoE-28" value="" style="endArrow=none;html=1;rounded=0;" edge="1" parent="1" source="cxBclDdadFvKwpa0EuoE-27" target="cxBclDdadFvKwpa0EuoE-11">
          <mxGeometry width="50" height="50" relative="1" as="geometry">
            <mxPoint x="550" y="440" as="sourcePoint" />
            <mxPoint x="600" y="390" as="targetPoint" />
          </mxGeometry>
        </mxCell>
        <mxCell id="cxBclDdadFvKwpa0EuoE-29" value="koordinate" style="ellipse;whiteSpace=wrap;html=1;" vertex="1" parent="1">
          <mxGeometry x="650" y="185" width="90" height="60" as="geometry" />
        </mxCell>
        <mxCell id="cxBclDdadFvKwpa0EuoE-30" value="" style="endArrow=none;html=1;rounded=0;" edge="1" parent="1" source="cxBclDdadFvKwpa0EuoE-11" target="cxBclDdadFvKwpa0EuoE-29">
          <mxGeometry width="50" height="50" relative="1" as="geometry">
            <mxPoint x="630" y="360" as="sourcePoint" />
            <mxPoint x="600" y="390" as="targetPoint" />
          </mxGeometry>
        </mxCell>
        <mxCell id="cxBclDdadFvKwpa0EuoE-31" value="komentar" style="rounded=0;whiteSpace=wrap;html=1;" vertex="1" parent="1">
          <mxGeometry x="100" y="460" width="120" height="60" as="geometry" />
        </mxCell>
        <mxCell id="cxBclDdadFvKwpa0EuoE-33" value="" style="endArrow=none;dashed=1;html=1;rounded=0;" edge="1" parent="1" source="cxBclDdadFvKwpa0EuoE-31" target="cxBclDdadFvKwpa0EuoE-34">
          <mxGeometry width="50" height="50" relative="1" as="geometry">
            <mxPoint x="440" y="470" as="sourcePoint" />
            <mxPoint x="200" y="310" as="targetPoint" />
          </mxGeometry>
        </mxCell>
        <mxCell id="cxBclDdadFvKwpa0EuoE-34" value="&lt;div&gt;napiše&lt;/div&gt;" style="rhombus;whiteSpace=wrap;html=1;" vertex="1" parent="1">
          <mxGeometry x="250" y="310" width="110" height="80" as="geometry" />
        </mxCell>
        <mxCell id="cxBclDdadFvKwpa0EuoE-36" value="N" style="text;html=1;align=center;verticalAlign=middle;whiteSpace=wrap;rounded=0;" vertex="1" parent="1">
          <mxGeometry x="260" y="290" width="60" height="30" as="geometry" />
        </mxCell>
        <mxCell id="cxBclDdadFvKwpa0EuoE-37" value="&lt;div&gt;1&lt;/div&gt;" style="text;html=1;align=center;verticalAlign=middle;whiteSpace=wrap;rounded=0;" vertex="1" parent="1">
          <mxGeometry x="250" y="380" width="60" height="30" as="geometry" />
        </mxCell>
        <mxCell id="cxBclDdadFvKwpa0EuoE-38" value="" style="endArrow=none;dashed=1;html=1;rounded=0;" edge="1" parent="1" source="cxBclDdadFvKwpa0EuoE-34" target="cxBclDdadFvKwpa0EuoE-1">
          <mxGeometry width="50" height="50" relative="1" as="geometry">
            <mxPoint x="320" y="320" as="sourcePoint" />
            <mxPoint x="370" y="270" as="targetPoint" />
          </mxGeometry>
        </mxCell>
        <mxCell id="cxBclDdadFvKwpa0EuoE-39" value="vsebuje" style="rhombus;whiteSpace=wrap;html=1;" vertex="1" parent="1">
          <mxGeometry x="350" y="410" width="110" height="80" as="geometry" />
        </mxCell>
        <mxCell id="cxBclDdadFvKwpa0EuoE-40" value="" style="endArrow=none;dashed=1;html=1;rounded=0;" edge="1" parent="1" source="cxBclDdadFvKwpa0EuoE-39" target="cxBclDdadFvKwpa0EuoE-11">
          <mxGeometry width="50" height="50" relative="1" as="geometry">
            <mxPoint x="360" y="380" as="sourcePoint" />
            <mxPoint x="410" y="330" as="targetPoint" />
          </mxGeometry>
        </mxCell>
        <mxCell id="cxBclDdadFvKwpa0EuoE-41" value="" style="endArrow=none;dashed=1;html=1;rounded=0;" edge="1" parent="1" source="cxBclDdadFvKwpa0EuoE-31" target="cxBclDdadFvKwpa0EuoE-39">
          <mxGeometry width="50" height="50" relative="1" as="geometry">
            <mxPoint x="360" y="380" as="sourcePoint" />
            <mxPoint x="410" y="330" as="targetPoint" />
          </mxGeometry>
        </mxCell>
        <mxCell id="cxBclDdadFvKwpa0EuoE-42" value="N" style="text;html=1;align=center;verticalAlign=middle;whiteSpace=wrap;rounded=0;" vertex="1" parent="1">
          <mxGeometry x="415" y="400" width="60" height="30" as="geometry" />
        </mxCell>
        <mxCell id="cxBclDdadFvKwpa0EuoE-43" value="1" style="text;html=1;align=center;verticalAlign=middle;whiteSpace=wrap;rounded=0;" vertex="1" parent="1">
          <mxGeometry x="310" y="430" width="60" height="30" as="geometry" />
        </mxCell>
        <mxCell id="cxBclDdadFvKwpa0EuoE-44" value="lokacija" style="rounded=0;whiteSpace=wrap;html=1;" vertex="1" parent="1">
          <mxGeometry x="400" y="570" width="120" height="60" as="geometry" />
        </mxCell>
        <mxCell id="cxBclDdadFvKwpa0EuoE-47" value="se nahaja" style="rhombus;whiteSpace=wrap;html=1;" vertex="1" parent="1">
          <mxGeometry x="490" y="450" width="110" height="80" as="geometry" />
        </mxCell>
        <mxCell id="cxBclDdadFvKwpa0EuoE-50" value="" style="endArrow=none;html=1;rounded=0;" edge="1" parent="1" source="cxBclDdadFvKwpa0EuoE-8" target="cxBclDdadFvKwpa0EuoE-11">
          <mxGeometry width="50" height="50" relative="1" as="geometry">
            <mxPoint x="480" y="380" as="sourcePoint" />
            <mxPoint x="530" y="330" as="targetPoint" />
          </mxGeometry>
        </mxCell>
        <mxCell id="cxBclDdadFvKwpa0EuoE-51" value="" style="endArrow=none;html=1;rounded=0;" edge="1" parent="1" source="cxBclDdadFvKwpa0EuoE-47" target="cxBclDdadFvKwpa0EuoE-11">
          <mxGeometry width="50" height="50" relative="1" as="geometry">
            <mxPoint x="490" y="500" as="sourcePoint" />
            <mxPoint x="605" y="370" as="targetPoint" />
          </mxGeometry>
        </mxCell>
        <mxCell id="cxBclDdadFvKwpa0EuoE-52" value="&lt;div&gt;1&lt;/div&gt;&lt;div&gt;&lt;br&gt;&lt;/div&gt;" style="text;html=1;align=center;verticalAlign=middle;whiteSpace=wrap;rounded=0;" vertex="1" parent="1">
          <mxGeometry x="545" y="450" width="60" height="30" as="geometry" />
        </mxCell>
        <mxCell id="cxBclDdadFvKwpa0EuoE-53" value="" style="endArrow=none;dashed=1;html=1;rounded=0;" edge="1" parent="1" source="cxBclDdadFvKwpa0EuoE-46" target="cxBclDdadFvKwpa0EuoE-47">
          <mxGeometry width="50" height="50" relative="1" as="geometry">
            <mxPoint x="490" y="500" as="sourcePoint" />
            <mxPoint x="540" y="450" as="targetPoint" />
          </mxGeometry>
        </mxCell>
        <mxCell id="cxBclDdadFvKwpa0EuoE-46" value="N" style="text;html=1;align=center;verticalAlign=middle;whiteSpace=wrap;rounded=0;" vertex="1" parent="1">
          <mxGeometry x="500" y="520" width="60" height="30" as="geometry" />
        </mxCell>
        <mxCell id="cxBclDdadFvKwpa0EuoE-55" value="" style="endArrow=none;html=1;rounded=0;" edge="1" parent="1" source="cxBclDdadFvKwpa0EuoE-15" target="cxBclDdadFvKwpa0EuoE-44">
          <mxGeometry width="50" height="50" relative="1" as="geometry">
            <mxPoint x="490" y="710" as="sourcePoint" />
            <mxPoint x="540" y="660" as="targetPoint" />
          </mxGeometry>
        </mxCell>
        <mxCell id="cxBclDdadFvKwpa0EuoE-56" value="" style="endArrow=none;html=1;rounded=0;" edge="1" parent="1" source="cxBclDdadFvKwpa0EuoE-17" target="cxBclDdadFvKwpa0EuoE-44">
          <mxGeometry width="50" height="50" relative="1" as="geometry">
            <mxPoint x="490" y="710" as="sourcePoint" />
            <mxPoint x="540" y="660" as="targetPoint" />
          </mxGeometry>
        </mxCell>
        <mxCell id="cxBclDdadFvKwpa0EuoE-57" value="&lt;div&gt;oblika&lt;/div&gt;" style="rounded=0;whiteSpace=wrap;html=1;" vertex="1" parent="1">
          <mxGeometry x="635" y="570" width="120" height="60" as="geometry" />
        </mxCell>
        <mxCell id="cxBclDdadFvKwpa0EuoE-58" value="ima" style="rhombus;whiteSpace=wrap;html=1;" vertex="1" parent="1">
          <mxGeometry x="665" y="425" width="110" height="80" as="geometry" />
        </mxCell>
        <mxCell id="cxBclDdadFvKwpa0EuoE-60" value="" style="endArrow=none;html=1;rounded=0;" edge="1" parent="1" source="cxBclDdadFvKwpa0EuoE-57" target="cxBclDdadFvKwpa0EuoE-58">
          <mxGeometry width="50" height="50" relative="1" as="geometry">
            <mxPoint x="590" y="500" as="sourcePoint" />
            <mxPoint x="640" y="450" as="targetPoint" />
          </mxGeometry>
        </mxCell>
        <mxCell id="cxBclDdadFvKwpa0EuoE-61" value="" style="endArrow=none;html=1;rounded=0;" edge="1" parent="1" source="cxBclDdadFvKwpa0EuoE-44" target="cxBclDdadFvKwpa0EuoE-47">
          <mxGeometry width="50" height="50" relative="1" as="geometry">
            <mxPoint x="590" y="500" as="sourcePoint" />
            <mxPoint x="640" y="450" as="targetPoint" />
          </mxGeometry>
        </mxCell>
        <mxCell id="cxBclDdadFvKwpa0EuoE-62" value="&lt;div&gt;ime&lt;/div&gt;" style="ellipse;whiteSpace=wrap;html=1;" vertex="1" parent="1">
          <mxGeometry x="610" y="700" width="90" height="60" as="geometry" />
        </mxCell>
        <mxCell id="cxBclDdadFvKwpa0EuoE-63" value="" style="endArrow=none;html=1;rounded=0;" edge="1" parent="1" source="cxBclDdadFvKwpa0EuoE-62" target="cxBclDdadFvKwpa0EuoE-57">
          <mxGeometry width="50" height="50" relative="1" as="geometry">
            <mxPoint x="590" y="580" as="sourcePoint" />
            <mxPoint x="640" y="530" as="targetPoint" />
          </mxGeometry>
        </mxCell>
        <mxCell id="cxBclDdadFvKwpa0EuoE-65" value="1" style="text;html=1;align=center;verticalAlign=middle;whiteSpace=wrap;rounded=0;" vertex="1" parent="1">
          <mxGeometry x="665" y="410" width="60" height="30" as="geometry" />
        </mxCell>
        <mxCell id="cxBclDdadFvKwpa0EuoE-66" value="&lt;div&gt;N&lt;/div&gt;" style="text;html=1;align=center;verticalAlign=middle;whiteSpace=wrap;rounded=0;" vertex="1" parent="1">
          <mxGeometry x="665" y="490" width="60" height="30" as="geometry" />
        </mxCell>
        <mxCell id="cxBclDdadFvKwpa0EuoE-67" value="tekst" style="ellipse;whiteSpace=wrap;html=1;" vertex="1" parent="1">
          <mxGeometry x="40" y="590" width="90" height="60" as="geometry" />
        </mxCell>
        <mxCell id="cxBclDdadFvKwpa0EuoE-68" value="" style="endArrow=none;html=1;rounded=0;" edge="1" parent="1" source="cxBclDdadFvKwpa0EuoE-67" target="cxBclDdadFvKwpa0EuoE-31">
          <mxGeometry width="50" height="50" relative="1" as="geometry">
            <mxPoint x="190" y="600" as="sourcePoint" />
            <mxPoint x="240" y="550" as="targetPoint" />
          </mxGeometry>
        </mxCell>
        <mxCell id="cxBclDdadFvKwpa0EuoE-69" value="datum" style="ellipse;whiteSpace=wrap;html=1;" vertex="1" parent="1">
          <mxGeometry x="180" y="590" width="90" height="60" as="geometry" />
        </mxCell>
        <mxCell id="cxBclDdadFvKwpa0EuoE-70" value="" style="endArrow=none;html=1;rounded=0;" edge="1" parent="1" source="cxBclDdadFvKwpa0EuoE-69" target="cxBclDdadFvKwpa0EuoE-31">
          <mxGeometry width="50" height="50" relative="1" as="geometry">
            <mxPoint x="190" y="600" as="sourcePoint" />
            <mxPoint x="240" y="550" as="targetPoint" />
          </mxGeometry>
        </mxCell>
      </root>
    </mxGraphModel>
  </diagram>
</mxfile>
